PathFileType	4	(X/Y/Z)	D:\Vicon data\Senior Design EMG regression\Subject 1- Steven\Session 1\steven - static trial01.trc
DataRate	CameraRate	NumFrames	NumMarkers	Units	OrigDataRate	OrigDataStartFrame	OrigNumFrames
100.0	100.0	4	60	mm	100.0	364	582	
Frame#	Time	HEAD			C7			CLAV			STUR			LSHO			LHAR2			LHME			LRAH			LRAD			LULN			LMCM			RSHO			RHAR2			RHME			RRAH			RRAD			RULN			RMCM			LASI			RASI			LPSI			RPSI			LLAT			LLFC			LKNE			LLAN			LHEE			LTOE			RLAT			RLFC			RKNE			RLAN			RHEE			RTOE			RSMT			RMAN			LSMT			LMAN			RSAT1			RSAT			RMFC			LSAT1			LSAT			LMFC			BARB			RHAR1			RHGT			RHHB			RHHF			RHLE			RMCR			RMCA			RMCI			LHHF			LHHB			LHGT			LHAR1			LHLE			LMCR			LMCI			
		X1	Y1	Z1	X2	Y2	Z2	X3	Y3	Z3	X4	Y4	Z4	X5	Y5	Z5	X6	Y6	Z6	X7	Y7	Z7	X8	Y8	Z8	X9	Y9	Z9	X10	Y10	Z10	X11	Y11	Z11	X12	Y12	Z12	X13	Y13	Z13	X14	Y14	Z14	X15	Y15	Z15	X16	Y16	Z16	X17	Y17	Z17	X18	Y18	Z18	X19	Y19	Z19	X20	Y20	Z20	X21	Y21	Z21	X22	Y22	Z22	X23	Y23	Z23	X24	Y24	Z24	X25	Y25	Z25	X26	Y26	Z26	X27	Y27	Z27	X28	Y28	Z28	X29	Y29	Z29	X30	Y30	Z30	X31	Y31	Z31	X32	Y32	Z32	X33	Y33	Z33	X34	Y34	Z34	X35	Y35	Z35	X36	Y36	Z36	X37	Y37	Z37	X38	Y38	Z38	X39	Y39	Z39	X40	Y40	Z40	X41	Y41	Z41	X42	Y42	Z42	X43	Y43	Z43	X44	Y44	Z44	X45	Y45	Z45	X46	Y46	Z46	X47	Y47	Z47	X48	Y48	Z48	X49	Y49	Z49	X50	Y50	Z50	X51	Y51	Z51	X52	Y52	Z52	X53	Y53	Z53	X54	Y54	Z54	X55	Y55	Z55	X56	Y56	Z56	X57	Y57	Z57	X58	Y58	Z58	X59	Y59	Z59	X60	Y60	Z60	
364	3.63	-73.595039	1645.9215	-325.43384	-65.897057	1452.173	-132.9668	-67.280975	1399.4274	-271.05984	-74.562874	1253.8035	-312.6355	-182.2515	1469.2396	-180.50987	-358.12875	1449.1932	-192.93817	-477.50912	1352.4955	-179.59554	-454.99286	1426.1855	-269.38831	-477.8194	1402.9314	-410.0087	-536.43213	1429.5281	-402.75827	-511.54208	1418.3265	-499.12787	53.272049	1458.9641	-170.26953	212.96684	1440.0083	-185.40385	347.56531	1338.3662	-180.93877	299.95312	1417.7765	-262.08972	292.74582	1393.7455	-408.14062	353.32166	1430.1143	-407.16635	320.53848	1429.098	-498.67117	-193.84486	965.58893	-304.10608	71.415771	994.43896	-280.84863	-132.82108	986.64581	-155.8784	-22.077423	987.41119	-143.45435	-215.91708	607.45129	-276.1283	-203.36578	501.85083	-240.3739	-161.70029	474.47061	-278.69656	-181.40405	93.414879	-174.09506	-134.621	68.516365	-111.88706	-145.19275	49.463978	-372.25659	115.48621	683.9472	-270.39069	93.173622	502.69861	-249.66414	41.26305	477.77167	-295.22833	88.329369	104.4361	-188.81097	40.053539	63.445335	-119.28941	52.211002	47.354839	-382.99573	118.46926	40.335667	-336.82089	2.9510155	121.34141	-195.54114	-210.30434	43.625687	-323.31744	-101.62646	127.01674	-197.31212	87.450516	767.20233	-333.73956	43.540928	640.51135	-324.30154	-11.096803	490.88748	-240.19313	-207.82172	766.65173	-331.37964	-158.71768	631.89197	-322.96732	-107.5753	488.15039	-225.72499	-8.4570045	1284.8361	-83.376373	267.58789	1422.2318	-145.54459	134.46292	1457.8779	-159.56839	81.380463	1441.5605	-119.18844	76.465958	1446.4713	-225.1714	358.26727	1419.7462	-174.05547	344.91592	1425.1174	-492.09924	356.81677	1419.0065	-452.15662	298.94467	1421.5698	-503.62451	-210.50418	1456.9294	-228.6248	-216.3976	1452.0043	-134.75894	-301.1644	1464.439	-153.24922	-413.15088	1438.2329	-147.57036	-495.50107	1432.7828	-172.97905	-537.38531	1414.2629	-492.8432	-492.92059	1416.1108	-502.43567
365	3.64	-73.583733	1645.875	-325.45905	-65.894608	1452.1598	-132.96426	-67.27832	1399.4062	-271.052	-74.587097	1253.7683	-312.61758	-182.26147	1469.2479	-180.51265	-358.13004	1449.1982	-192.94099	-477.50253	1352.3665	-179.53044	-455.09082	1425.9921	-269.34424	-477.81375	1402.9104	-410.0318	-536.43176	1429.4972	-402.78616	-511.62021	1418.4166	-499.17645	53.262569	1458.9543	-170.27451	212.95781	1439.9766	-185.39658	347.4848	1338.2072	-180.88982	299.94897	1417.7483	-262.09705	292.73007	1393.7097	-408.15582	353.32349	1430.0586	-407.1637	320.52902	1429.0643	-498.67358	-193.85905	965.57886	-304.09845	71.401901	994.42303	-280.8382	-132.79761	986.62042	-155.86382	-22.049007	987.40112	-143.44008	-215.89622	607.44598	-276.1304	-203.4019	501.85583	-240.35139	-161.70569	474.47675	-278.7009	-181.38654	93.411247	-174.07898	-134.61897	68.483025	-111.89536	-145.1949	49.454384	-372.2666	115.47974	683.94312	-270.39438	93.184639	502.72168	-249.6685	41.254635	477.77695	-295.23068	88.359001	104.4367	-188.80385	40.063866	63.41312	-119.32294	52.210754	47.337772	-383.01434	118.48669	40.31176	-336.811	2.9487145	121.34071	-195.5175	-210.30852	43.636959	-323.33017	-101.60743	127.0213	-197.31186	87.450569	767.18652	-333.74115	43.563778	640.52533	-324.32758	-11.141165	490.90222	-240.23227	-207.82199	766.65283	-331.37299	-158.72949	631.87048	-322.95309	-107.61806	488.13922	-225.65836	-8.4799519	1284.8138	-83.379478	267.58893	1422.2126	-145.54878	134.43938	1457.8744	-159.58406	81.394356	1441.5552	-119.1776	76.480789	1446.4572	-225.17474	358.26639	1419.7241	-174.04825	344.89578	1424.9963	-492.14053	356.83612	1418.9717	-452.17581	298.91251	1421.5073	-503.62683	-210.49005	1456.8994	-228.64348	-216.37474	1452.0404	-134.7271	-301.16602	1464.449	-153.2438	-413.14926	1438.2366	-147.60626	-495.50439	1432.795	-173.00227	-537.38318	1414.2578	-492.82062	-492.88724	1416.0449	-502.49869
366	3.65	-73.584206	1645.8688	-325.53299	-65.87661	1452.1757	-132.97429	-67.2752	1399.4172	-271.06018	-74.564529	1253.8013	-312.68051	-182.26181	1469.2435	-180.54562	-358.11234	1449.2004	-192.96725	-477.50375	1352.4127	-179.54247	-455.03574	1426.0592	-269.39536	-477.80951	1402.8987	-410.05096	-536.42841	1429.5032	-402.81885	-511.55923	1418.3481	-499.17258	53.27594	1458.9779	-170.28726	212.9523	1439.9714	-185.41684	347.57309	1338.3319	-180.93132	299.94846	1417.7306	-262.11682	292.71902	1393.6797	-408.14279	353.31424	1430.0327	-407.16605	320.52225	1429.0065	-498.67526	-193.87766	965.58057	-304.07736	71.386551	994.44067	-280.80618	-132.80336	986.61957	-155.82625	-22.056784	987.40302	-143.39381	-215.91634	607.45844	-276.13141	-203.37537	501.87302	-240.36278	-161.72583	474.47702	-278.69312	-181.34819	93.413773	-174.08539	-134.59264	68.499512	-111.87098	-145.18774	49.4669	-372.27942	115.48422	683.95233	-270.37616	93.183357	502.71964	-249.68381	41.247429	477.78192	-295.23544	88.343704	104.4362	-188.82108	40.058224	63.412457	-119.29623	52.196735	47.344284	-382.9917	118.47474	40.3391	-336.81033	2.9655507	121.31345	-195.52553	-210.30725	43.649246	-323.32431	-101.63864	127.00175	-197.2901	87.406479	767.20111	-333.71957	43.519753	640.52783	-324.28415	-11.142422	490.8591	-240.21863	-207.85968	766.65552	-331.35815	-158.74155	631.89844	-322.95105	-107.64156	488.13626	-225.69681	-8.4748764	1284.8168	-83.373367	267.58945	1422.1978	-145.56311	134.4425	1457.8685	-159.60471	81.271286	1441.4429	-119.21856	76.473557	1446.4532	-225.19023	358.2771	1419.7209	-174.061	344.89935	1424.9839	-492.19217	356.80545	1418.9342	-452.17068	298.91388	1421.4967	-503.63678	-210.49504	1456.9147	-228.65208	-216.32275	1452.0812	-134.72989	-301.14938	1464.462	-153.2809	-413.14755	1438.2756	-147.64333	-495.50079	1432.8214	-173.02115	-537.33734	1414.1965	-492.87408	-492.87054	1415.9812	-502.55029
367	3.66	-73.593445	1645.8168	-325.56693	-65.901047	1452.1953	-132.9743	-67.280655	1399.4121	-271.05396	-74.607689	1253.8348	-312.54767	-182.26672	1469.2522	-180.54338	-358.13501	1449.212	-192.99135	-477.56253	1352.5291	-179.61545	-455.03775	1426.0701	-269.39709	-477.8371	1402.85	-410.07022	-536.43225	1429.4989	-402.82382	-511.52188	1418.2203	-499.26559	53.267323	1458.9326	-170.31268	212.95322	1439.9709	-185.42471	347.47195	1338.1757	-180.89787	299.94183	1417.7015	-262.11288	292.67407	1393.6674	-408.11237	353.29626	1429.9852	-407.1691	320.50967	1428.9648	-498.71161	-193.91098	965.5708	-304.05573	71.388405	994.44141	-280.79385	-132.83537	986.62024	-155.82407	-22.09519	987.40503	-143.40025	-215.94249	607.43323	-276.10785	-203.38245	501.85944	-240.3334	-161.70995	474.46756	-278.68311	-181.38408	93.439125	-174.07649	-134.61089	68.501373	-111.8882	-145.20097	49.463116	-372.25925	115.48012	683.96411	-270.37823	93.220375	502.74438	-249.68115	41.264469	477.79456	-295.24719	88.328018	104.43205	-188.81389	40.056423	63.426361	-119.28777	52.213764	47.353909	-382.9895	118.46604	40.332432	-336.82822	2.9432058	121.3421	-195.52296	-210.30736	43.64056	-323.32193	-101.62502	127.02495	-197.31941	87.429207	767.20306	-333.72836	43.528603	640.51337	-324.26691	-11.109818	490.90518	-240.23618	-207.83838	766.66003	-331.35251	-158.71742	631.89807	-322.95676	-107.6338	488.13974	-225.692	-8.4941559	1284.8451	-83.365067	267.58658	1422.1962	-145.5563	134.44586	1457.8616	-159.6107	81.367332	1441.594	-119.18132	76.468025	1446.4409	-225.20578	358.25269	1419.6892	-174.05522	344.87961	1424.9531	-492.15579	356.80087	1418.8704	-452.15421	298.88467	1421.4393	-503.62576	-210.49019	1456.9117	-228.66347	-216.56761	1451.8774	-134.86786	-301.16037	1464.4663	-153.28386	-413.16769	1438.2941	-147.66801	-495.52081	1432.8263	-173.04504	-537.34564	1414.2133	-492.94955	-492.86484	1415.9353	-502.58737
